<svg width="548.000000" height="300.000000" viewBox="0 0 548 300" fill="none" xmlns="http://www.w3.org/2000/svg" xmlns:xlink="http://www.w3.org/1999/xlink">
	<desc>
			Created with Pixso.
	</desc>
	<defs>
		<clipPath id="clip3_4">
			<rect id="画板 1" width="548.000000" height="300.000000" fill="white" fill-opacity="0"/>
		</clipPath>
	</defs>
	<rect id="画板 1" width="548.000000" height="300.000000" fill="#FFFFFF" fill-opacity="1.000000"/>
	<g clip-path="url(#clip3_4)">
		<path id="Keybr" d="M362.53 119.91Q357.44 116.67 350.28 116.67Q347.32 116.67 344.48 117.25Q336.12 118.97 328.8 125.74L334.29 86.29L316.01 88.3L301.45 191.41Q309.68 194.43 316.5 195.77Q323.35 197.14 330.7 197.14Q345.48 197.14 354.94 190.05Q355.34 189.75 355.73 189.44Q360.98 185.26 364.59 179.95Q367.62 175.5 369.48 170.25Q371.56 164.41 372.59 158.39Q373.59 152.52 373.59 146.48Q373.59 132.21 367.47 124.44Q365.31 121.69 362.53 119.91ZM84.14 95.5L70.18 195L89.06 195L103.02 95.5L84.14 95.5ZM97.25 141.87L124.92 195L146.79 195L117.43 141.87L158.18 95.5L137.44 95.5L97.25 141.87ZM218.97 149.16Q222.11 143.93 222.11 136.81Q222.11 134.27 221.45 131.91Q220.7 129.21 219.09 126.76Q219.08 126.74 219.07 126.72Q216.04 122.11 210.09 119.41Q204.11 116.67 195.75 116.67Q182.93 116.67 174.14 122.61Q173.07 123.34 172.05 124.16Q167.51 127.82 164.18 132.36Q160.69 137.11 158.51 142.82Q155.25 151.45 154.51 160.3Q154.3 162.87 154.3 165.46Q154.3 178.78 160.78 186.94Q161.52 187.87 162.35 188.74Q163.15 189.58 164.03 190.33Q171.93 197.14 185.69 197.14Q188.75 197.14 191.75 196.74Q203.6 195.16 214.62 187.37L207.56 175.84Q202.39 179.6 197.61 181.25Q196.42 181.66 195.21 181.97Q191.57 182.9 187.69 182.9Q181.34 182.9 177.7 179.76Q173.17 175.84 172.86 167.05Q195.32 164.76 208.72 158.15Q215.62 154.73 218.97 149.16ZM439.85 117.97Q435.95 116.81 432.22 116.81Q430.25 116.81 428.36 117.2Q424.01 118.1 420.09 121.06Q414.5 125.32 410.32 133.65L410.88 118.81L395.2 118.81L384.55 195L402.69 195L408 157.41Q411.9 146.34 416.65 140.57Q419.64 136.94 423.44 135.6Q425.67 134.81 428.18 134.81Q431.06 134.81 434.51 135.65L439.85 117.97ZM249.32 217.25Q259.97 209.41 266.16 195.42L300.58 118.81L281.73 118.81L255.79 182.34L248.3 118.81L229.32 118.81L242.57 195L249.04 195Q244.29 203.5 238.6 207.37Q232.9 211.27 221.83 213L222.39 226.39Q238.67 225.09 249.32 217.25ZM196.17 149.15Q189 153.37 173.74 154.81Q175.46 144.16 180.56 136.99Q182.97 133.6 186.26 131.8Q189.96 129.78 194.76 129.78Q199.18 129.78 201.2 131.98Q201.29 132.08 201.37 132.17Q202.47 133.46 202.96 134.95Q203.37 136.18 203.37 137.55Q203.37 140.27 202.39 142.56Q200.71 146.47 196.17 149.15ZM339.57 131.03Q341.6 130.48 343.78 130.48Q347.38 130.48 349.8 132.18Q354.75 135.64 354.75 146.16Q354.75 148.11 354.63 150.05Q354.23 156.73 352.43 163.32Q350.11 171.83 345.08 177.59Q342.57 180.45 339.42 181.88Q336.25 183.32 332.42 183.32Q326.94 183.32 321.17 181.32L326.8 140.29Q330.98 135.65 334.99 133.09Q337.17 131.68 339.57 131.03Z" fill="#2979FF" fill-opacity="1.000000" fill-rule="evenodd"/>
	</g>
</svg>
